<svg width="960" height="960" xmlns="http://www.w3.org/2000/svg" xmlns:xlink="http://www.w3.org/1999/xlink" overflow="hidden"><defs><clipPath id="clip0"><path d="M0 0 960 0 960 960 0 960Z" fill-rule="evenodd" clip-rule="evenodd"/></clipPath><clipPath id="clip1"><path d="M480 261 899 261 899 679 480 679Z" fill-rule="evenodd" clip-rule="evenodd"/></clipPath><clipPath id="clip2"><path d="M480 261 899 261 899 679 480 679Z" fill-rule="evenodd" clip-rule="evenodd"/></clipPath><clipPath id="clip3"><path d="M480 261 899 261 899 679 480 679Z" fill-rule="evenodd" clip-rule="evenodd"/></clipPath><clipPath id="clip4"><path d="M61 261 480 261 480 679 61 679Z" fill-rule="evenodd" clip-rule="evenodd"/></clipPath><clipPath id="clip5"><path d="M61 261 480 261 480 679 61 679Z" fill-rule="evenodd" clip-rule="evenodd"/></clipPath><clipPath id="clip6"><path d="M61 261 480 261 480 679 61 679Z" fill-rule="evenodd" clip-rule="evenodd"/></clipPath></defs><g clip-path="url(#clip0)"><rect x="0" y="0" width="960" height="960" fill="#FFFFFF" fill-opacity="0"/><g clip-path="url(#clip1)"><g clip-path="url(#clip2)"><g clip-path="url(#clip3)"><path d="M347.126 309.633C347.161 312.919 346.313 317.216 345.431 320.757 339.265 345.663 311.886 373.611 273.349 371.068 238.423 368.769 209.975 352.002 209.975 328.49 209.975 304.977 238.353 285.912 273.349 285.912 308.345 285.912 346.905 286.121 347.126 309.633Z" fill="#EA596E" transform="matrix(1.00239 0 -0 1 480 261)"/><path d="M273.349 289.86C254.55 289.86 211.647 295.062 201.801 295.062 184.408 295.062 170.3 305.976 170.3 319.445 170.3 325.924 173.621 331.776 178.939 336.142 178.939 336.142 190.62 347.857 211.659 342.237 220.867 339.776 235.845 321.5 262.214 318.597 275.346 317.146 299.95 327.306 343.19 327.549 345.047 323.555 345.431 320.78 345.431 320.78 345.431 297.244 308.345 289.86 273.349 289.86Z" fill="#DD2E44" transform="matrix(1.00239 0 -0 1 480 261)"/><path d="M345.431 320.757C345.431 320.757 370.789 315.613 386.557 294.876 404.938 270.69 402.522 244.809 402.522 244.809 421.147 209.975 396.717 177.313 396.717 177.313 394.29 140.541 371.556 125.307 371.556 125.307 356.798 90.2299 324.147 80.8017 324.147 80.8017 298.51 50.8102 253.029 51.7739 253.029 51.7739 253.029 51.7739 210.417 36.157 151.92 53.713 142.248 56.6158 109.829 63.3851 86.1196 77.8989 11.3905 123.647 5.73589 194.985 6.78089 206.585 12.5748 271.41 58.0556 283.021 87.0833 289.79 93.8526 308.171 118.77 342.04 163.519 329.465 218.672 319.793 241.894 303.34 255.444 303.34 268.995 303.34 306.731 317.854 345.431 320.757Z" fill="#F4ABBA" transform="matrix(1.00239 0 -0 1 480 261)"/><path d="M205.946 216.524C232.977 201.952 247.63 203.311 260.565 204.483 264.675 204.855 268.565 205.145 272.501 205.122 295.538 204.599 314.197 194.892 322.452 185.499 324.565 183.084 324.322 179.426 321.918 177.302 319.526 175.188 315.869 175.409 313.721 177.824 307.358 185.069 291.671 193.07 272.234 193.511 268.751 193.615 265.256 193.267 261.633 192.93 247.758 191.641 230.527 190.062 200.431 206.306 192.71 210.475 182.12 212.019 170.648 213.18 145.139 176.361 160.489 144.291 164.878 136.651 165.307 136.674 165.725 136.814 166.167 136.814 170.811 136.814 175.479 135.676 179.705 133.284 182.492 131.705 183.479 128.163 181.9 125.377 180.321 122.59 176.779 121.603 173.992 123.182 166.561 127.385 156.785 124.959 152.164 117.76 150.434 115.054 146.846 114.265 144.152 116.007 141.458 117.737 140.669 121.325 142.399 124.018 145.15 128.326 149.029 131.566 153.406 133.737 147.357 146.021 135.873 178.323 157.725 214.446 142.352 215.955 126.956 218.126 114.904 225.894 107.124 230.91 99.1705 238.248 93.0979 246.69 85.7945 245.436 59.0541 238.852 54.3864 209.174 57.2892 206.922 59.6347 203.949 61.0861 200.28 62.2704 197.296 60.8074 193.929 57.8233 192.744 54.8393 191.56 51.4721 193.023 50.2877 196.007 49.2543 198.62 47.3849 200.524 45.0163 201.36 42.6708 202.196 40.0119 201.917 37.5503 200.547 34.7288 198.98 31.2107 200.013 29.6548 202.8 28.0989 205.598 29.1091 209.139 31.9073 210.695 35.2049 212.53 38.7347 213.459 42.2412 213.459 42.6708 213.459 43.0772 213.261 43.5068 213.238 49.0337 241.256 71.1761 253.563 86.8395 257.291 84.7959 261.796 83.4142 266.44 82.9962 271.131 82.7176 274.313 85.0746 277.146 88.2677 277.424L88.7902 277.448C91.7626 277.448 94.3054 275.183 94.5725 272.153 95.8265 258.069 109.261 243.357 121.197 235.636 132.39 228.425 148.773 226.904 164.634 225.43 180.019 224.025 194.556 222.678 205.946 216.524ZM355.335 199.061C353.814 201.871 354.859 205.401 357.657 206.922 358.539 207.409 359.503 207.641 360.444 207.641 362.487 207.641 364.473 206.562 365.529 204.634 365.75 204.239 386.917 164.587 347.288 137.94 344.641 136.175 341.03 136.86 339.23 139.519 337.442 142.178 338.15 145.789 340.809 147.577 371.509 168.222 356.008 197.807 355.335 199.061ZM114.671 105.313C116.483 105.313 118.259 104.477 119.385 102.898 136.222 79.4781 159.537 87.4897 160.524 87.8613 163.531 88.9527 166.84 87.4201 167.955 84.4244 169.069 81.4171 167.537 78.0847 164.529 76.9701 153.383 72.8365 127.641 71.536 109.957 96.1284 108.088 98.7177 108.68 102.352 111.281 104.221 112.314 104.964 113.499 105.313 114.671 105.313ZM266.452 83.391C292.286 81.2894 304.037 100.018 304.571 100.901 305.663 102.735 307.59 103.757 309.575 103.757 310.574 103.757 311.596 103.501 312.513 102.956 315.276 101.33 316.205 97.7772 314.591 95.0137 313.964 93.9571 299.033 69.2603 265.546 71.8147 262.353 72.0585 259.973 74.8568 260.217 78.0615 260.472 81.2546 263.363 83.6813 266.452 83.391ZM372.693 253.041C369.837 252.878 366.69 255.143 366.435 258.347 366.412 258.556 364.566 278.307 344.258 284.983 341.216 285.982 339.555 289.256 340.565 292.31 341.355 294.748 343.642 296.304 346.081 296.304 346.685 296.304 347.288 296.211 347.892 296.014 375.434 286.98 377.918 260.437 378.011 259.311 378.255 256.106 375.887 253.296 372.693 253.041Z" fill="#EA596E" transform="matrix(1.00239 0 -0 1 480 261)"/><path d="M85.3068 196.623C84.4708 199.723 86.3054 202.904 89.4055 203.74 89.9048 203.879 90.4157 203.938 90.915 203.938 93.481 203.938 95.8149 202.231 96.5116 199.641 98.7177 191.386 107.275 186.091 115.693 187.868 118.84 188.506 121.905 186.521 122.567 183.374 123.229 180.239 121.22 177.162 118.073 176.501 113.127 175.455 108.157 175.943 103.583 177.499 90.0442 154.346 92.6799 131.519 92.7147 131.275 93.1327 128.105 90.9034 125.191 87.7336 124.75 84.5753 124.367 81.6493 126.538 81.2081 129.708 81.0572 130.834 77.957 156.599 93.5507 183.281 89.6726 186.776 86.7234 191.339 85.3068 196.623ZM215.107 167.943C219.833 163.566 227.415 163.647 232.002 168.117 233.139 169.209 234.591 169.754 236.054 169.754 237.575 169.754 239.084 169.162 240.211 167.99 242.44 165.691 242.394 162.01 240.095 159.78 237.424 157.191 234.231 155.461 230.84 154.381 234.277 142.584 232.919 137.348 229.726 127.536 229.168 125.83 228.553 123.925 227.903 121.754L227.555 120.593C223.328 106.567 220.53 97.3127 228.565 84.2502 230.248 81.5216 229.389 77.9454 226.66 76.2618 223.978 74.5898 220.367 75.4142 218.672 78.166 207.897 95.6756 211.856 108.785 216.443 123.96L216.791 125.121C217.476 127.374 218.103 129.348 218.684 131.124 221.552 139.96 222.422 142.921 218.916 153.603 214.631 154.405 210.533 156.344 207.189 159.455 204.843 161.638 204.715 165.319 206.898 167.664 209.093 170.01 212.774 170.126 215.107 167.943ZM289.012 133.284C292.391 133.284 295.805 132.576 298.986 131.066 301.889 129.696 303.131 126.236 301.761 123.333 300.403 120.43 296.896 119.223 294.04 120.558 288.211 123.298 281.024 120.918 277.97 115.252 276.449 112.419 272.908 111.385 270.109 112.872 267.288 114.381 266.22 117.911 267.741 120.732 269.831 124.634 272.942 127.711 276.565 129.847 270.33 145 273.871 161.093 276.762 169.627 277.575 172.053 279.839 173.574 282.266 173.574 282.882 173.574 283.497 173.482 284.124 173.273 287.166 172.251 288.792 168.953 287.758 165.923 285.807 160.14 282.022 145.534 287.735 133.11 288.176 133.133 288.583 133.284 289.012 133.284ZM344.711 242.765C344.49 239.572 341.727 237.052 338.545 237.343 326.771 238.179 316.739 229.25 315.938 217.569 315.706 214.376 312.861 211.996 309.75 212.17 306.557 212.39 304.141 215.165 304.35 218.359 304.826 225.209 307.439 231.386 311.41 236.414 302.075 247.398 289.848 250.521 283.032 251.322 277.006 252.042 271.735 251.427 265.639 250.707 260.054 250.068 253.738 249.337 245.923 249.569L245.865 249.581C245.633 246.26 244.843 241.418 242.324 237.389 240.629 234.684 237.041 233.859 234.324 235.555 231.618 237.25 230.782 240.838 232.489 243.555 234.045 246.051 234.335 250.034 234.335 251.973 228.483 254.074 223.421 257.163 218.846 260.147 210.672 265.465 204.228 269.668 194.533 267.485 185.755 265.476 176.965 265.07 169.511 266.115 168.349 263.201 166.515 259.717 163.682 257.035 161.348 254.829 157.679 254.922 155.473 257.267 153.278 259.59 153.371 263.27 155.705 265.476 156.704 266.417 157.493 267.787 158.132 269.157 145.325 274.429 138.904 283.241 138.602 283.671 136.744 286.272 137.359 289.86 139.937 291.729 140.959 292.461 142.143 292.821 143.328 292.821 145.127 292.821 146.904 291.996 148.042 290.44 148.1 290.347 154.474 281.813 167.049 278.365 173.551 276.577 182.875 276.728 191.967 278.794 194.509 279.375 196.866 279.572 199.154 279.607 200.234 282.138 200.652 285.146 200.71 286.26 200.895 289.349 203.45 291.741 206.504 291.741L206.817 291.729C210.01 291.555 212.46 288.85 212.309 285.657 212.274 285.076 212.042 281.639 210.8 277.691 216.152 275.752 220.808 272.722 225.186 269.877 231.827 265.546 238.109 261.447 246.318 261.18 253.192 260.936 258.858 261.598 264.327 262.237 269.831 262.876 275.241 263.294 281.21 262.945 282.266 265.883 282.185 269.807 282.022 271.119 281.639 274.289 283.88 277.192 287.061 277.61 287.305 277.645 287.549 277.656 287.793 277.656 290.661 277.656 293.157 275.532 293.54 272.606 293.633 271.886 294.226 266.661 292.855 261.215 301.192 258.974 311.526 254.109 320.083 244.135 325.088 247.201 330.928 249 337.14 249 337.86 249 338.592 248.977 339.311 248.931 342.505 248.722 344.92 245.97 344.711 242.765Z" fill="#EA596E" transform="matrix(1.00239 0 -0 1 480 261)"/></g></g></g><g clip-path="url(#clip4)"><g clip-path="url(#clip5)"><g clip-path="url(#clip6)"><path d="M155.505 306.969 155.505 165.982 66.3461 165.982C44.1978 165.982 25.4123 187.208 18.8133 216.628 10.7496 217.691 4.42819 227.683 4.42819 239.859 4.42819 252.034 10.7496 262.026 18.8133 263.089 24.7657 289.628 40.6383 309.494 59.9479 313.13L59.9479 369.192 383.204 369.192 383.204 306.969 155.505 306.969Z" fill="#132028" transform="matrix(1.00239 0 -0 1 61 261)"/><path d="M400.62 349.403C400.62 374.664 380.143 395.141 354.883 395.141 333.816 395.141 316.088 380.894 310.778 361.513 305.468 380.894 287.74 395.141 266.673 395.141 241.413 395.141 220.936 374.664 220.936 349.403 220.936 324.143 241.413 303.666 266.673 303.666 287.74 303.666 305.468 317.913 310.778 337.293 316.088 317.913 333.816 303.666 354.883 303.666 380.142 303.666 400.62 324.143 400.62 349.403ZM131.637 165.982 155.925 73.0381 76.9316 73.0381 101.22 165.982 90.061 165.982C62.4134 165.982 39.9998 199.057 39.9998 239.858 39.9998 280.658 62.4126 313.733 90.061 313.733L240.244 313.733 240.244 165.982 131.637 165.982ZM132.52 343.242C121.773 343.242 112.552 349.775 108.611 359.087 104.671 349.776 95.4501 343.242 84.7038 343.242 70.3726 343.242 58.7543 354.86 58.7543 369.191 58.7543 383.522 70.3718 395.141 84.7038 395.141 95.451 395.141 104.671 388.608 108.611 379.296 112.552 388.608 121.773 395.141 132.52 395.141 146.851 395.141 158.469 383.523 158.469 369.191 158.469 354.86 146.851 343.242 132.52 343.242Z" fill="#575A5B" transform="matrix(1.00239 0 -0 1 61 261)"/><path d="M163.918 313.734 150.833 313.734C134.419 313.734 121.113 280.659 121.113 239.859 121.113 199.058 134.419 165.983 150.833 165.983L163.918 165.983C147.504 165.983 134.198 199.058 134.198 239.859 134.199 280.658 147.505 313.734 163.918 313.734ZM99.7942 239.858C99.7942 199.057 113.1 165.982 129.514 165.982L116.428 165.982C100.014 165.982 86.7081 199.057 86.7081 239.858 86.7081 280.658 100.014 313.733 116.428 313.733L129.513 313.733C113.1 313.734 99.7942 280.658 99.7942 239.858Z" fill="#FFB636" transform="matrix(1.00239 0 -0 1 61 261)"/><path d="M399.511 313.734 240.244 313.734 240.244 70.0158 399.511 70.0158 399.511 313.734ZM60.5855 313.584 54.0624 313.584C52.0737 313.584 50.2196 314.792 49.1354 316.796L13.5132 382.593C10.9692 387.293 13.776 393.508 18.4402 393.508L61.5676 393.508C64.8553 393.508 67.5037 390.268 67.445 386.319L66.4628 320.521C66.4057 316.67 63.7907 313.584 60.5855 313.584Z" fill="#FF473E" transform="matrix(1.00239 0 -0 1 61 261)"/><path d="M405.983 54.2069 233.771 54.2069C228.938 54.2069 225.02 58.1257 225.02 62.9588L225.02 64.2863C225.02 69.1194 228.938 73.0381 233.771 73.0381L405.983 73.0381C410.816 73.0381 414.734 69.1194 414.734 64.2863L414.734 62.9588C414.734 58.1257 410.816 54.2069 405.983 54.2069Z" fill="#EF2020" transform="matrix(1.00239 0 -0 1 61 261)"/><path d="M303.267 210.243 269.834 210.243C266.588 210.243 263.956 207.611 263.956 204.365L263.956 101.249C263.956 98.003 266.588 95.3709 269.834 95.3709L303.267 95.3709C306.513 95.3709 309.145 98.003 309.145 101.249L309.145 204.365C309.145 207.612 306.513 210.243 303.267 210.243ZM375.934 204.365 375.934 101.249C375.934 98.003 373.302 95.3709 370.056 95.3709L336.622 95.3709C333.376 95.3709 330.744 98.003 330.744 101.249L330.744 204.365C330.744 207.611 333.376 210.243 336.622 210.243L370.056 210.243C373.303 210.243 375.934 207.612 375.934 204.365Z" fill="#76DFFF" transform="matrix(1.00239 0 -0 1 61 261)"/><path d="M399.511 277.24 240.244 277.24 240.244 247.374 399.511 247.374 399.511 277.24ZM90.7599 42.4531 76.9104 73.0381 155.904 73.0381 142.055 42.4531 90.7599 42.4531ZM266.673 338.771C260.802 338.771 256.041 343.531 256.041 349.403 256.041 355.275 260.802 360.035 266.673 360.035 272.545 360.035 277.305 355.275 277.305 349.403 277.305 343.531 272.545 338.771 266.673 338.771ZM354.883 338.771C349.011 338.771 344.251 343.531 344.251 349.403 344.251 355.275 349.01 360.035 354.883 360.035 360.755 360.035 365.515 355.275 365.515 349.403 365.515 343.531 360.754 338.771 354.883 338.771ZM84.7038 363.16C81.372 363.16 78.6714 365.86 78.6714 369.192 78.6714 372.524 81.372 375.224 84.7038 375.224 88.0355 375.224 90.7362 372.524 90.7362 369.192 90.7362 365.86 88.0355 363.16 84.7038 363.16ZM132.52 363.16C129.188 363.16 126.487 365.86 126.487 369.192 126.487 372.524 129.188 375.224 132.52 375.224 135.852 375.224 138.552 372.524 138.552 369.192 138.552 365.86 135.852 363.16 132.52 363.16Z" fill="#132028" transform="matrix(1.00239 0 -0 1 61 261)"/><path d="M160.594 362.654 84.7038 362.654C80.6952 362.654 77.4451 359.405 77.4451 355.396 77.4451 351.386 80.6944 348.137 84.7038 348.137L158.547 348.137 188.557 329.743C189.699 329.044 191.011 328.673 192.35 328.673L375.171 328.673C379.18 328.673 382.43 331.922 382.43 335.932 382.43 339.941 379.181 343.19 375.171 343.19L194.398 343.19 164.387 361.584C163.246 362.284 161.933 362.654 160.594 362.654Z" fill="#FFB636" transform="matrix(1.00239 0 -0 1 61 261)"/><path d="M57.0252 320.912C52.3006 320.912 48.4651 317.087 48.4529 312.36 48.4415 307.626 52.2704 303.778 57.0047 303.768L394.935 302.951C394.942 302.951 394.95 302.951 394.956 302.951 399.681 302.951 403.516 306.776 403.528 311.503 403.539 316.237 399.71 320.085 394.976 320.096L57.0456 320.912C57.0399 320.912 57.0317 320.912 57.0252 320.912Z" fill="#ADB7BC" transform="matrix(1.00239 0 -0 1 61 261)"/></g></g></g></g></svg>